<svg xmlns="http://www.w3.org/2000/svg" width="144.407" height="28.438" viewBox="0 0 144.407 28.438"><defs><style>.a{fill:#00a551;}</style></defs><g transform="translate(0 0.075)"><path d="M20.538,1.4A15.709,15.709,0,0,0,14.181.2H2.671V23.86H0v4.4H10.532v-4.4H7.862V20.136h6.319a15.709,15.709,0,0,0,6.357-1.2,8.991,8.991,0,0,0,4.138-3.461,9.493,9.493,0,0,0,1.429-5.3,9.849,9.849,0,0,0-1.429-5.341A9.149,9.149,0,0,0,20.538,1.4Zm-1.429,12.9a7.868,7.868,0,0,1-5.153,1.429H7.862V4.6h6.094A8.089,8.089,0,0,1,19.109,6.03a5.08,5.08,0,0,1,1.768,4.138A4.924,4.924,0,0,1,19.109,14.306Z" transform="translate(0 -0.2)"/><path d="M84.142,17.3a18.062,18.062,0,0,0-5,.677,12.007,12.007,0,0,0-4.063,1.956l1.956,3.649A8.418,8.418,0,0,1,79.967,22a11.4,11.4,0,0,1,3.536-.564,5.872,5.872,0,0,1,3.987,1.2A4.369,4.369,0,0,1,88.844,26.1v.339h-5.53c-3.084,0-5.341.564-6.771,1.73A5.675,5.675,0,0,0,74.4,32.8a5.9,5.9,0,0,0,.978,3.31A6.515,6.515,0,0,0,78.162,38.4a9.794,9.794,0,0,0,4.213.828,10.233,10.233,0,0,0,4.1-.752,5.955,5.955,0,0,0,2.633-2.144v2.6h4.74V26.4c0-3.047-.828-5.341-2.52-6.846C89.672,18.052,87.265,17.3,84.142,17.3Zm4.7,14.933a4.954,4.954,0,0,1-2.069,2.483,6.621,6.621,0,0,1-3.348.865,5.02,5.02,0,0,1-3.009-.79,2.56,2.56,0,0,1-1.091-2.182c0-1.881,1.429-2.859,4.326-2.859h5.153v2.483Z" transform="translate(-46.414 -10.868)"/><path d="M145.11,27.606a2.841,2.841,0,0,1-2.219-.828,3.327,3.327,0,0,1-.752-2.37V14.215h5.718V10.19h-5.718V5.3h-5v4.89H133.6v4.025h3.536V24.522a7.118,7.118,0,0,0,1.918,5.379,7.484,7.484,0,0,0,5.454,1.843,8.99,8.99,0,0,0,2.671-.376,5.783,5.783,0,0,0,2.144-1.091L147.932,26.7A4.373,4.373,0,0,1,145.11,27.606Z" transform="translate(-83.345 -3.382)"/><path d="M190.586,20.648V17.526h-4.777v17H183.1v4.4h10.495v-4.4h-2.784V28.547a6.9,6.9,0,0,1,1.655-4.928,6.073,6.073,0,0,1,4.552-1.693,6.758,6.758,0,0,1,1.166.113V17.3C194.573,17.3,192.053,18.428,190.586,20.648Z" transform="translate(-114.226 -10.868)"/></g><g transform="translate(87.758)"><path class="a" d="M286.5,18.692a13.146,13.146,0,0,0-11.774,0,10.33,10.33,0,0,0-4.062,3.874,10.88,10.88,0,0,0-1.467,5.642,11.114,11.114,0,0,0,1.467,5.68A10.422,10.422,0,0,0,274.73,37.8a12.078,12.078,0,0,0,5.868,1.392A12.33,12.33,0,0,0,286.5,37.8a10.166,10.166,0,0,0,4.062-3.912,11.016,11.016,0,0,0,1.467-5.68,10.879,10.879,0,0,0-1.467-5.642A9.855,9.855,0,0,0,286.5,18.692Zm-1.317,14.369a6.541,6.541,0,0,1-9.1,0,6.652,6.652,0,0,1-1.768-4.852,6.812,6.812,0,0,1,1.768-4.852,6.541,6.541,0,0,1,9.1,0,6.677,6.677,0,0,1,1.806,4.852A6.617,6.617,0,0,1,285.187,33.061Z" transform="translate(-255.696 -10.792)"/><path class="a" d="M233.3,4.4h2.633V23.736H233.3v4.4h10.495v-4.4h-2.633V4.4h2.633V0H233.3Z" transform="translate(-233.3)"/><path class="a" d="M344.411,4.6V.2H320.6V4.6h9.329V23.86h-2.671v4.4H337.79v-4.4H335.12V4.6Z" transform="translate(-287.761 -0.125)"/></g><rect width="10.532" height="4.401"/></svg>