<svg xmlns="http://www.w3.org/2000/svg" width="73" height="76" viewBox="0 0 73 76"><defs><style>.a{fill:#00a54f;}</style></defs><g transform="translate(-71 -400)"><rect width="73" height="2" rx="1" transform="translate(71 474)"/><g transform="translate(-4 400.013)"><path d="M160.97,141.945a15.381,15.381,0,0,1-10.484-3.927,13.61,13.61,0,0,1-4.387-10.151V109.2a14.805,14.805,0,0,1,2.961-8.9,15.317,15.317,0,0,1,3.183-3.136,1.257,1.257,0,0,1,1.489,2.027,12.173,12.173,0,0,0-2.645,2.613,12.344,12.344,0,0,0-2.455,7.4v18.671c0,6.6,5.321,11.576,12.368,11.576s12.368-4.973,12.368-11.576V109.211a12.356,12.356,0,0,0-2.455-7.411,12.98,12.98,0,0,0-2.755-2.676,1.25,1.25,0,0,1,1.441-2.043,15.444,15.444,0,0,1,3.294,3.215,14.714,14.714,0,0,1,2.961,8.916v18.655a13.643,13.643,0,0,1-4.387,10.151A15.45,15.45,0,0,1,160.97,141.945Z" transform="translate(-48.899 -81.524)"/><path d="M172.508,390.434H141.2v-1.251a7.546,7.546,0,0,1,7.538-7.538h3.389V373.6h2.5v10.547h-5.891a5.046,5.046,0,0,0-4.878,3.785h25.987a5.046,5.046,0,0,0-4.878-3.785h-5.891V373.6h2.5v8.045h3.389a7.546,7.546,0,0,1,7.538,7.538Z" transform="translate(-44.775 -314.446)"/><path d="M108.6,283.537a.772.772,0,0,1-.19-.016A24.063,24.063,0,0,1,88,259.751a1.251,1.251,0,1,1,2.5,0,21.54,21.54,0,0,0,18.275,21.284,1.25,1.25,0,0,1,1.045,1.425A1.217,1.217,0,0,1,108.6,283.537Z" transform="translate(0 -217.574)"/><path d="M255.25,283.537a1.256,1.256,0,0,1-1.235-1.061,1.242,1.242,0,0,1,1.045-1.425,21.54,21.54,0,0,0,18.275-21.3,1.251,1.251,0,0,1,2.5,0,24.063,24.063,0,0,1-20.413,23.77A.6.6,0,0,1,255.25,283.537Z" transform="translate(-139.711 -217.574)"/><g transform="translate(97.676 30.173)"><path d="M158.428,193.1h-8.076a1.251,1.251,0,1,1,0-2.5h8.076a1.251,1.251,0,1,1,0,2.5Z" transform="translate(-149.1 -190.6)"/><path d="M158.428,233.8h-8.076a1.251,1.251,0,1,1,0-2.5h8.076a1.251,1.251,0,1,1,0,2.5Z" transform="translate(-149.1 -224.855)"/><path d="M158.428,274.4h-8.076a1.251,1.251,0,0,1,0-2.5h8.076a1.251,1.251,0,1,1,0,2.5Z" transform="translate(-149.1 -259.025)"/><g transform="translate(18.212)"><path d="M273.412,193.1h-8.061a1.251,1.251,0,1,1,0-2.5h8.061a1.251,1.251,0,0,1,0,2.5Z" transform="translate(-264.1 -190.6)"/><path d="M273.412,233.8h-8.061a1.251,1.251,0,1,1,0-2.5h8.061a1.251,1.251,0,0,1,0,2.5Z" transform="translate(-264.1 -224.855)"/><path d="M273.412,274.4h-8.061a1.251,1.251,0,0,1,0-2.5h8.061a1.251,1.251,0,0,1,0,2.5Z" transform="translate(-264.1 -259.025)"/></g></g><g transform="translate(99.692 -0.013)"><path class="a" d="M208.159,80.871a1.268,1.268,0,0,0,.887,2.375,10,10,0,0,1,6.984,0,1.268,1.268,0,0,0,.887-2.375A12.445,12.445,0,0,0,208.159,80.871Z" transform="translate(-200.151 -67.392)"/><path class="a" d="M200.523,44.55a1.27,1.27,0,0,0,1.235-.966,1.257,1.257,0,0,0-.649-1.425,17.759,17.759,0,0,0-16.311,0,1.3,1.3,0,0,0-.713,1.077,1.259,1.259,0,0,0,.586,1.14,1.281,1.281,0,0,0,1.283.032,15.24,15.24,0,0,1,13.983,0A1.329,1.329,0,0,0,200.523,44.55Z" transform="translate(-180.559 -33.811)"/><path class="a" d="M163.759,5.469a20.1,20.1,0,0,1,20.951,0,1.262,1.262,0,0,0,1.314-2.154,22.6,22.6,0,0,0-23.58-.016,1.268,1.268,0,1,0,1.314,2.17Z" transform="translate(-161.832 0.013)"/></g><g transform="translate(99.692 -0.013)"><path class="a" d="M208.159,80.871a1.268,1.268,0,0,0,.887,2.375,10,10,0,0,1,6.984,0,1.268,1.268,0,0,0,.887-2.375A12.445,12.445,0,0,0,208.159,80.871Z" transform="translate(-200.151 -67.392)"/><path class="a" d="M200.523,44.55a1.27,1.27,0,0,0,1.235-.966,1.257,1.257,0,0,0-.649-1.425,17.759,17.759,0,0,0-16.311,0,1.3,1.3,0,0,0-.713,1.077,1.259,1.259,0,0,0,.586,1.14,1.281,1.281,0,0,0,1.283.032,15.24,15.24,0,0,1,13.983,0A1.329,1.329,0,0,0,200.523,44.55Z" transform="translate(-180.559 -33.811)"/><path class="a" d="M163.759,5.469a20.1,20.1,0,0,1,20.951,0,1.262,1.262,0,0,0,1.314-2.154,22.6,22.6,0,0,0-23.58-.016,1.268,1.268,0,1,0,1.314,2.17Z" transform="translate(-161.832 0.013)"/></g></g></g></svg>