<svg xmlns="http://www.w3.org/2000/svg" width="73" height="76" viewBox="0 0 73 76"><defs><style>.a{fill:#00a54f;}</style></defs><g transform="translate(-71 -400)"><rect width="73" height="2" rx="1" transform="translate(71 474)"/><g transform="translate(-2.4 400.013)"><path d="M172.508,390.434H141.2v-1.251a7.546,7.546,0,0,1,7.538-7.538h3.389V373.6h2.5v10.547h-5.891a5.046,5.046,0,0,0-4.878,3.785h25.987a5.046,5.046,0,0,0-4.878-3.785h-5.891V373.6h2.5v8.045h3.389a7.546,7.546,0,0,1,7.538,7.538Z" transform="translate(-46.122 -314.446)"/><path d="M191.4,135.337a1.244,1.244,0,0,1-1.251-1.251V132A3,3,0,0,0,187.154,129H176.2A3,3,0,0,0,173.2,132v2.09a1.251,1.251,0,1,1-2.5,0V132a5.508,5.508,0,0,1,5.5-5.5h10.959a5.508,5.508,0,0,1,5.5,5.5v2.09A1.244,1.244,0,0,1,191.4,135.337Z" transform="translate(-70.95 -106.478)"/><path d="M128.683,200.548H92.766a6.367,6.367,0,0,1-6.366-6.366V172.866a6.367,6.367,0,0,1,6.366-6.366H128.7a6.367,6.367,0,0,1,6.366,6.366v21.3A6.394,6.394,0,0,1,128.683,200.548ZM92.766,169a3.869,3.869,0,0,0-3.864,3.864v21.316a3.869,3.869,0,0,0,3.864,3.864h35.917a3.886,3.886,0,0,0,3.88-3.88v-21.3A3.869,3.869,0,0,0,128.7,169Z" transform="translate(0 -140.143)"/><path d="M182.6,227.4a10.8,10.8,0,1,1,10.8-10.8A10.814,10.814,0,0,1,182.6,227.4Zm0-19.1a8.3,8.3,0,1,0,8.3,8.3A8.306,8.306,0,0,0,182.6,208.3Z" transform="translate(-71.876 -173.22)"/><circle cx="2.249" cy="2.249" r="2.249" transform="translate(125.135 31.424)"/><g transform="translate(98.346 -0.013)"><path class="a" d="M208.159,80.871a1.268,1.268,0,0,0,.887,2.375,10,10,0,0,1,6.984,0,1.268,1.268,0,0,0,.887-2.375A12.445,12.445,0,0,0,208.159,80.871Z" transform="translate(-200.151 -67.392)"/><path class="a" d="M200.523,44.55a1.27,1.27,0,0,0,1.235-.966,1.257,1.257,0,0,0-.649-1.425,17.759,17.759,0,0,0-16.311,0,1.3,1.3,0,0,0-.713,1.077,1.259,1.259,0,0,0,.586,1.14,1.281,1.281,0,0,0,1.283.032,15.24,15.24,0,0,1,13.983,0A1.329,1.329,0,0,0,200.523,44.55Z" transform="translate(-180.559 -33.811)"/><path class="a" d="M163.759,5.469a20.1,20.1,0,0,1,20.951,0,1.262,1.262,0,0,0,1.314-2.154,22.6,22.6,0,0,0-23.58-.016,1.268,1.268,0,1,0,1.314,2.17Z" transform="translate(-161.832 0.013)"/></g></g></g></svg>