<svg xmlns="http://www.w3.org/2000/svg" width="73" height="76" viewBox="0 0 73 76"><defs><style>.a{fill:#00a551;}</style></defs><g transform="translate(-228 -168)"><g transform="translate(240 168)"><path class="a" d="M120.12,80.89a1.264,1.264,0,0,0,.885,2.368,9.922,9.922,0,0,1,6.976,0,1.264,1.264,0,0,0,.885-2.368A12.46,12.46,0,0,0,120.12,80.89Zm0,0" transform="translate(-100.475 -67.44)"/><path class="a" d="M112.433,44.522a1.265,1.265,0,0,0,.583-2.386,17.7,17.7,0,0,0-16.284,0A1.264,1.264,0,1,0,97.9,44.38a15.17,15.17,0,0,1,13.957,0A1.267,1.267,0,0,0,112.433,44.522Zm0,0" transform="translate(-80.853 -33.807)"/><path class="a" d="M75.649,5.463a20.09,20.09,0,0,1,20.913,0A1.264,1.264,0,0,0,97.874,3.3a22.613,22.613,0,0,0-23.537,0,1.264,1.264,0,1,0,1.312,2.162Zm0,0" transform="translate(-62.085 0)"/><path d="M43.035,142.862v-3.793a18.964,18.964,0,0,0-37.927,0v3.793a5.057,5.057,0,0,0-5.057,5.057v24.021A5.057,5.057,0,0,0,5.108,177H43.035a5.057,5.057,0,0,0,5.057-5.057V147.919A5.056,5.056,0,0,0,43.035,142.862Zm-35.4-3.793a16.435,16.435,0,0,1,32.87,0v3.793H36.714v-3.793a12.642,12.642,0,0,0-25.285,0v3.793H7.636Zm26.549,3.793H13.957v-3.793a10.114,10.114,0,0,1,20.228,0Zm11.378,29.078a2.528,2.528,0,0,1-2.528,2.528H5.108a2.529,2.529,0,0,1-2.528-2.528V147.919a2.529,2.529,0,0,1,2.528-2.528H43.035a2.528,2.528,0,0,1,2.528,2.528Zm0,0" transform="translate(-0.051 -101.125)"/><path d="M122.164,325.575h-7.585a1.265,1.265,0,0,1-1.253-1.43l1.161-8.759a6.321,6.321,0,1,1,7.77,0l1.161,8.759a1.265,1.265,0,0,1-1.253,1.43Zm-6.142-2.528h4.7l-1.074-8.1a1.264,1.264,0,0,1,.622-1.264,3.792,3.792,0,1,0-3.793,0,1.264,1.264,0,0,1,.622,1.264Zm0,0" transform="translate(-94.35 -256.025)"/></g><rect width="73" height="2" rx="1" transform="translate(228 242)"/></g></svg>