<svg xmlns="http://www.w3.org/2000/svg" width="73" height="74" viewBox="0 0 73 74"><defs><style>.a{fill:#00a551;}</style></defs><g transform="translate(-227 -402)"><rect width="73" height="2" rx="1" transform="translate(227 474)"/><g transform="translate(240 402)"><path d="M7.267,41.221A16.533,16.533,0,0,1,10.3,44.887c1.064,1.847,1.238,8.318,1.1,11.961a1.265,1.265,0,0,0,1.262,1.314v3.793h-.071a1.265,1.265,0,0,0,.071,2.528v2.528h-.071a1.265,1.265,0,0,0,.071,2.528v2.528c0,.58,22.756.58,22.756,0V68.275h.071a1.264,1.264,0,0,0-.071-2.516V63.218h.071a1.259,1.259,0,0,0-.071-2.516V58.161a1.264,1.264,0,0,0,1.264-1.314c-.141-3.642.03-10.114,1.1-11.961a16.53,16.53,0,0,1,3.034-3.666l.215-.215a24.021,24.021,0,1,0-33.97,0Zm25.62,29.86h-17.7V69.4l17.7-.983Zm0-5.2-17.7.983V64.34l17.7-.983Zm0-5.057-17.7.983v-3.65h17.7Zm-8.85-20.366a2.528,2.528,0,1,1,2.528-2.528A2.528,2.528,0,0,1,24.038,40.462ZM8.84,8.829A21.492,21.492,0,0,1,39.235,39.224l-.212.212a18.742,18.742,0,0,0-3.438,4.186c-1.45,2.517-1.517,9.1-1.466,12.01H25.3V42.811a5.057,5.057,0,1,0-2.528,0V55.633H13.956c.048-2.908-.016-9.494-1.466-12.01a18.742,18.742,0,0,0-3.438-4.186l-.212-.212A21.492,21.492,0,0,1,8.84,8.829Zm0,0" transform="translate(-0.02 0)"/><path class="a" d="M107.247,168.039a11.3,11.3,0,0,0-8.045,3.333,1.264,1.264,0,0,0,1.787,1.788,8.851,8.851,0,0,1,12.516,0,1.264,1.264,0,0,0,1.788-1.788A11.307,11.307,0,0,0,107.247,168.039Zm0,0" transform="translate(-83.229 -141.484)"/><path class="a" d="M70.914,133.255a1.264,1.264,0,0,0,1.788,1.788,15.187,15.187,0,0,1,21.454,0,1.265,1.265,0,0,0,1.79-1.788A17.716,17.716,0,0,0,70.914,133.255Zm0,0" transform="translate(-59.412 -107.837)"/><path class="a" d="M74.815,96.924A1.264,1.264,0,0,0,76.6,95.136a24.049,24.049,0,0,0-33.97,0,1.264,1.264,0,0,0,1.788,1.788A21.518,21.518,0,0,1,74.815,96.924Zm0,0" transform="translate(-35.6 -74.188)"/></g></g></svg>