<svg xmlns="http://www.w3.org/2000/svg" width="73" height="76" viewBox="0 0 73 76"><defs><style>.a{fill:#00a551;}</style></defs><g transform="translate(-71 -400)"><rect width="73" height="2" rx="1" transform="translate(71 474)"/><g transform="translate(77 400)"><path d="M149.017,304.93a6.321,6.321,0,1,1-6.321,0,1.265,1.265,0,0,0-1.264-2.191,8.849,8.849,0,1,0,8.85,0,1.265,1.265,0,1,0-1.264,2.191Zm0,0" transform="translate(-115.362 -254.754)"/><path d="M185.012,289.362v7.585a1.264,1.264,0,0,0,2.528,0v-7.585a1.264,1.264,0,0,0-2.528,0Zm0,0" transform="translate(-155.782 -242.57)"/><path class="a" d="M161.078,80.887a1.264,1.264,0,0,0,.885,2.368,9.922,9.922,0,0,1,6.976,0,1.264,1.264,0,0,0,.885-2.368A12.473,12.473,0,0,0,161.078,80.887Zm0,0" transform="translate(-134.96 -67.438)"/><path class="a" d="M153.552,44.516a1.264,1.264,0,0,0,.583-2.387,17.7,17.7,0,0,0-16.283,0,1.264,1.264,0,1,0,1.163,2.245,15.17,15.17,0,0,1,13.957,0A1.263,1.263,0,0,0,153.552,44.516Zm0,0" transform="translate(-115.5 -33.801)"/><path class="a" d="M116.607,5.463a20.09,20.09,0,0,1,20.913,0A1.264,1.264,0,0,0,138.831,3.3a22.621,22.621,0,0,0-23.537,0,1.265,1.265,0,0,0,1.312,2.163Zm0,0" transform="translate(-96.569 -0.001)"/><path d="M59.884,145.776,36.8,122.693a8.85,8.85,0,0,0-12.516,0L1.2,145.776a3.952,3.952,0,0,0,0,5.58,4.046,4.046,0,0,0,5.579,0l3.534-3.532v27.9a1.264,1.264,0,0,0,1.264,1.264H49.507a1.264,1.264,0,0,0,1.264-1.264v-27.9l3.531,3.532a3.947,3.947,0,0,0,5.582-5.58ZM48.243,174.462h-35.4V145.3L29.65,128.49a1.29,1.29,0,0,1,1.788,0L48.243,145.3Zm9.851-24.894a1.451,1.451,0,0,1-2,0L33.226,126.7a3.792,3.792,0,0,0-5.364,0L5,149.568a1.447,1.447,0,0,1-2,0,1.417,1.417,0,0,1,0-2l23.081-23.085a6.321,6.321,0,0,1,8.94,0L58.1,147.563A1.419,1.419,0,0,1,58.094,149.568Zm0,0" transform="translate(-0.05 -101.121)"/></g></g></svg>