<svg xmlns="http://www.w3.org/2000/svg" width="60" height="60" viewBox="0 0 60 60"><defs><style>.a{fill:#fff;}</style></defs><g transform="translate(-157 -204)"><path d="M38,68A30,30,0,1,1,68,38,30.088,30.088,0,0,1,38,68Zm0-57.5A27.5,27.5,0,1,0,65.5,38,27.581,27.581,0,0,0,38,10.5Z" transform="translate(149 196)"/><path d="M30.707,30.8a1.229,1.229,0,0,1-1.3-1.3,3.913,3.913,0,0,0-3.9-3.9,3.833,3.833,0,0,0-3.9,3.9,1.3,1.3,0,0,1-2.6,0A6.523,6.523,0,0,1,25.5,23a6.441,6.441,0,0,1,6.5,6.5A1.229,1.229,0,0,1,30.707,30.8Z" transform="translate(151.603 199.641)"/><path d="M46.707,30.8a1.229,1.229,0,0,1-1.3-1.3,3.913,3.913,0,0,0-3.9-3.9,3.833,3.833,0,0,0-3.9,3.9,1.3,1.3,0,0,1-2.6,0A6.523,6.523,0,0,1,41.5,23a6.441,6.441,0,0,1,6.5,6.5A1.229,1.229,0,0,1,46.707,30.8Z" transform="translate(155.389 199.641)"/><path class="a" d="M46.743,46.358a1.325,1.325,0,0,1-.858-.368,16.6,16.6,0,0,0-22.81,0,1.217,1.217,0,1,1-1.594-1.839A19.656,19.656,0,0,1,34.6,39a19.2,19.2,0,0,1,13.122,5.273,1.313,1.313,0,0,1,.123,1.717A2.328,2.328,0,0,1,46.743,46.358Z" transform="translate(153.044 200.178)"/></g></svg>