<?xml version="1.0" encoding="UTF-8" standalone="no"?>
<svg
   xmlns:dc="http://purl.org/dc/elements/1.1/"
   xmlns:cc="http://creativecommons.org/ns#"
   xmlns:rdf="http://www.w3.org/1999/02/22-rdf-syntax-ns#"
   xmlns:svg="http://www.w3.org/2000/svg"
   xmlns="http://www.w3.org/2000/svg"
   id="svg1203"
   version="1.1"
   viewBox="0 0 31.558843 31.558086"
   height="31.558086"
   width="31.558844">
  <metadata
     id="metadata1207">
    <rdf:RDF>
      <cc:Work
         rdf:about="">
        <dc:format>image/svg+xml</dc:format>
        <dc:type
           rdf:resource="http://purl.org/dc/dcmitype/StillImage" />
        <dc:title></dc:title>
      </cc:Work>
    </rdf:RDF>
  </metadata>
  <defs
     id="defs1185">
    <style
       id="style1183">.a,.b{fill:none;stroke:#00a54f;stroke-linecap:round;stroke-width:2px;}.b{stroke-miterlimit:10;}.c{fill:#00a54f;}</style>
  </defs>
  <g
     id="g1201"
     transform="translate(-1.186629,-1.0416501)">
    <path
       style="fill:none;stroke:#00a54f;stroke-width:2px;stroke-linecap:round"
       id="path1187"
       d="M 2.1867146,16.844637 C 2.1828085,12.99848 3.5383725,9.7124451 5.6915718,7.2196186 10.907539,1.1809296 20.80415,-0.20309473 27.394836,6.3808976 32.882144,11.862633 32.848367,19.641643 29.201111,25.106561 26.65936,28.91503 22.362682,31.599634 16.956715,31.599637"
       class="a" />
    <path
       style="fill:none;stroke:#00a54f;stroke-width:1.98814642px;stroke-linecap:round;stroke-miterlimit:10"
       id="path1189"
       d="m 17.032076,8.2648387 v 9.2411303 l -0.116485,4.186476"
       class="b" />
    <circle
       style="fill:#00a54f"
       id="circle1191"
       r="1"
       cy="25.732172"
       cx="16.973661"
       class="c" />
    <path
       style="fill:none;stroke:#00a54f;stroke-width:2px;stroke-linecap:round"
       id="path1187-3"
       d="m 31.582199,14.62257 c 0.54906,3.806767 -0.327021,7.251772 -2.10512,10.024644 -4.307314,6.717076 -13.907808,9.48997 -21.3652255,3.90669 C 1.9029173,23.905347 0.83367826,16.200097 3.6694538,10.273362 5.6456888,6.1430568 9.5184383,2.8765064 14.869818,2.1102075"
       class="a" />
  </g>
</svg>
