<svg xmlns="http://www.w3.org/2000/svg" width="60" height="60" viewBox="0 0 60 60"><defs><style>.a{fill:#00a551;}</style></defs><g transform="translate(-8 -8)"><g transform="translate(8 8)"><path d="M38,68A30,30,0,1,1,68,38,30.088,30.088,0,0,1,38,68Zm0-57.5A27.5,27.5,0,1,0,65.5,38,27.581,27.581,0,0,0,38,10.5Z" transform="translate(-8 -8)"/><path class="a" d="M35.291,49.585A18.934,18.934,0,0,1,17,35.667a1.349,1.349,0,0,1,.853-1.561,1.248,1.248,0,0,1,1.463.911,16.43,16.43,0,0,0,31.7,0,1.248,1.248,0,0,1,1.463-.911,1.349,1.349,0,0,1,.853,1.561A18.439,18.439,0,0,1,35.291,49.585Z" transform="translate(-5.299 -1.917)"/><path d="M30.707,30.8a1.229,1.229,0,0,1-1.3-1.3,3.913,3.913,0,0,0-3.9-3.9,3.833,3.833,0,0,0-3.9,3.9,1.3,1.3,0,0,1-2.6,0A6.523,6.523,0,0,1,25.5,23a6.441,6.441,0,0,1,6.5,6.5A1.229,1.229,0,0,1,30.707,30.8Z" transform="translate(-5.397 -4.359)"/><path d="M46.707,30.8a1.229,1.229,0,0,1-1.3-1.3,3.913,3.913,0,0,0-3.9-3.9,3.833,3.833,0,0,0-3.9,3.9,1.3,1.3,0,0,1-2.6,0A6.523,6.523,0,0,1,41.5,23a6.441,6.441,0,0,1,6.5,6.5A1.229,1.229,0,0,1,46.707,30.8Z" transform="translate(-1.611 -4.359)"/></g></g></svg>